<svg xmlns="http://www.w3.org/2000/svg" width="97" height="160" viewBox="0 0 97 160">
    <path fill="#000" fill-rule="evenodd" d="M16.185 63.314h14.3v-3.027h-14.3v3.027zm79.136 72.873c0 10.097-6.594 18.678-15.699 21.676 2.036-1.445 3.736-3.607 5.04-6.449 2.627-5.73 2.91-12.378 2.91-14.97V72.995h2.18v-22.39H6.563v22.39h2.18v63.449c0 2.592.282 9.24 2.91 14.97 1.304 2.842 3.004 5.004 5.04 6.449-9.106-2.998-15.7-11.579-15.7-21.676V48.31a36.829 36.829 0 0 1 6.928-21.532h80.471a36.829 36.829 0 0 1 6.928 21.532v87.877zm-85.584-13.16h76.841V72.995H9.738v50.032zm-.994-51.026H7.558V51.6h81.2v20.401H8.742zm15.07 87.005c-.3 0-.596-.011-.892-.023-4.55-.23-8.038-2.909-10.364-7.983-2.546-5.553-2.82-12.029-2.82-14.556v-12.423h76.841v12.423c0 2.527-.275 9.004-2.82 14.556-2.326 5.074-5.812 7.753-10.363 7.983-.297.012-.593.023-.892.023h-48.69zm8.461-147.295l.37-.054a37.12 37.12 0 0 1 1.573-.2c.152-.016.3-.024.451-.037a37.326 37.326 0 0 1 3.377-.161H58.27c11.961 0 22.61 5.702 29.39 14.525H8.655c5.667-7.375 14.036-12.568 23.618-14.073zm15.892-6.967c4.39 0 8.455 2.068 11.092 5.547-.33-.009-.657-.025-.988-.025H38.045c-.328 0-.65.016-.976.024 2.635-3.478 6.702-5.546 11.097-5.546zm17.225 6.2C62.261 4.291 55.521 0 48.166 0c-7.355 0-14.084 4.289-17.219 10.939C13.351 14.275 0 29.758 0 48.31v87.877c0 12.848 10.23 23.346 22.97 23.792.2.008.395.021.595.021v-.006c.083.001.165.006.248.006h48.69c.083 0 .165-.005.248-.006V160c.2 0 .396-.013.594-.021 12.741-.446 22.97-10.944 22.97-23.792V48.31c0-18.544-13.339-34.022-30.924-37.366z"/>
</svg>
