<svg xmlns="http://www.w3.org/2000/svg" width="180" height="100" viewBox="0 0 180 100">
    <path fill="#000" fill-rule="evenodd" d="M35.574 45.617h14.353v-3.038H35.574v3.038zm139.136 41.31c-4.005 5.125-11.236 8.124-22.062 9.161 2.05-2.382 3.792-5.776 5.264-9.63 4.807-.81 8.195-2.639 10.332-5.602 4.652-6.448 2.847-17.315.56-31.074l-.454-2.745a27.982 27.982 0 0 0 1.947-10.266V16.485a1148.59 1148.59 0 0 1 6.722 36.694c2.31 13.888 3.734 26.014-2.31 33.747zm-28.641 11.732h-4.987V64.912h1.073c8.684 0 16.46-3.955 21.626-10.157-.96 8.282-5.788 43.904-17.712 43.904zm-74.718 0c-.566 0-2.49-1.218-3.514-16.902-.484-7.41-.55-14.896-.56-16.845h45.446c-.01 1.95-.075 9.434-.56 16.845-1.024 15.684-2.947 16.902-3.513 16.902h-37.3zM16.219 54.755c5.167 6.202 12.943 10.157 21.627 10.157h1.073V98.66h-4.987c-11.925 0-16.752-35.623-17.713-43.904zM5.289 86.926C-.751 79.193.67 67.067 2.982 53.18 5.7 36.84 8.33 23.32 9.703 16.486v20.285c0 3.622.696 7.083 1.948 10.266l-.455 2.746c-2.286 13.76-4.091 24.625.56 31.073 2.138 2.963 5.526 4.792 10.333 5.602 1.47 3.854 3.213 7.248 5.263 9.63-10.825-1.037-18.057-4.036-22.062-9.162zm7.089-38.196a28.151 28.151 0 0 0 2.677 4.52c.18 1.874 1.958 19.185 6.63 32.12-4.23-.81-7.23-2.473-9.122-5.095-4.41-6.113-2.634-16.799-.386-30.329l.2-1.216zm-1.68-41.39c0-3.918.644-6.346 3.854-6.346h47.972v62.923H46.583V56.09h-7.664v7.827h-1.073c-14.97 0-27.148-12.178-27.148-27.146V7.341zm103.019 57.572h19.7V98.66H110.17c1.12-1.674 2.277-6.012 2.985-16.84.488-7.442.552-14.955.56-16.907zm-50.198-.995h52.964V.994H63.519v62.923zm3.326 17.902c.708 10.828 1.865 15.166 2.985 16.84H46.583V64.912h19.7c.01 1.952.074 9.465.562 16.907zm100.979-31.873c2.248 13.53 4.023 24.216-.386 30.33-1.892 2.621-4.892 4.284-9.122 5.093 4.673-12.938 6.45-30.255 6.63-32.12a28.101 28.101 0 0 0 2.676-4.519l.202 1.216zm1.479-42.606v29.431c0 14.968-12.178 27.146-27.148 27.146h-1.073V56.09h-7.665v7.827h-15.94V.994h47.97c3.21 0 3.856 2.428 3.856 6.346zM178 53.016c-3.84-23.064-7.498-40.52-7.703-41.492V7.34c0-3.812-.587-7.34-4.85-7.34H14.553c-4.261 0-4.85 3.528-4.85 7.34v4.184c-.203.97-3.862 18.425-7.701 41.492C-.35 67.14-1.785 79.486 4.507 87.538c4.324 5.534 12.14 8.688 23.887 9.645 1.655 1.561 3.495 2.472 5.538 2.472h112.137c2.042 0 3.882-.91 5.537-2.472 11.748-.957 19.564-4.11 23.887-9.645 6.292-8.05 4.858-20.398 2.507-34.522z"/>
</svg>
