<svg xmlns="http://www.w3.org/2000/svg" width="158" height="143" viewBox="0 0 158 143">
    <path fill="#000" fill-rule="evenodd" d="M66.029 107.049h25.328v-3.046H66.029v3.046zm90.213-15.52c-.044.208-4.375 20.907-6.205 30.774-.702 3.786-1.869 6.811-3.463 9.233v-.018h-12.5c11.268-17.779 17.608-50.9 18.941-58.434 2.673 5.714 3.828 12.09 3.227 18.445zm-42.279 49.591H43.424c-14.83 0-25.945-.747-31.915-8.602h134.369c-5.971 7.855-17.085 8.602-31.915 8.602zM1.153 91.585a35.755 35.755 0 0 1 3.219-18.5c1.333 7.536 7.673 40.656 18.94 58.433h-12.51c-1.588-2.419-2.752-5.438-3.453-9.215-1.83-9.867-6.161-30.566-6.196-30.718zm9.132-27.399a35.695 35.695 0 0 1 7.729-6.382c-.626 2.934-1.565 10.498 3.835 15.57 3.735 3.507 10.726 5.038 20.297 5.691v52.453H24.503C12.13 112.526 5.62 74.548 5.125 71.563a35.577 35.577 0 0 1 5.16-7.377zm31.861-11.68V78.07c-9.305-.636-16.076-2.103-19.613-5.424-5.827-5.472-3.71-14.15-3.319-15.55A35.754 35.754 0 0 1 36.7 52.505h5.446zm8-15.96C50.146 20.806 62.952 8 78.693 8c15.741 0 28.547 12.806 28.547 28.547v14.96H50.146v-14.96zm70.539 15.96a35.767 35.767 0 0 1 17.487 4.587c.39 1.4 2.509 10.08-3.32 15.552-3.537 3.321-10.306 4.788-19.613 5.424V52.506h5.446zM50.146 78.42V52.506h57.094V78.42c-5.799.142-12.296.12-19.392.091-5.908-.023-12.401-.023-18.311 0-7.095.028-13.592.051-19.391-.09zm19.395 1.091c5.906-.023 12.399-.023 18.304 0 2.769.011 5.447.021 8.032.021 4.033 0 7.818-.029 11.363-.117v52.103H50.146v-52.1c5.813.143 12.308.12 19.395.093zm77.558-15.326a35.636 35.636 0 0 1 5.163 7.378c-.496 2.981-7.005 40.961-19.378 59.955h-17.645V79.065c9.569-.654 16.564-2.185 20.297-5.69 5.401-5.073 4.461-12.638 3.834-15.572a35.623 35.623 0 0 1 7.729 6.382zm.741-.673a36.786 36.786 0 0 0-27.155-12.006h-5.446V36.547C115.239 16.362 98.877 0 78.693 0S42.146 16.362 42.146 36.547v14.96H36.7A36.785 36.785 0 0 0 9.546 63.512C2.605 71.143-.818 81.41.166 91.734c.043.208 4.372 20.896 6.201 30.751 3.381 18.227 17.491 19.635 37.057 19.635h70.539c19.565 0 33.675-1.408 37.056-19.635 1.829-9.855 6.159-30.543 6.21-30.807a36.784 36.784 0 0 0-9.389-28.166z"/>
</svg>
